<?xml version="1.0" encoding="utf-8"?>
<!-- Generator: Adobe Illustrator 23.0.3, SVG Export Plug-In . SVG Version: 6.00 Build 0)  -->
<svg version="1.1" id="Layer_1" xmlns="http://www.w3.org/2000/svg" xmlns:xlink="http://www.w3.org/1999/xlink" x="0px" y="0px"
	 viewBox="0 0 600 461" xml:space="preserve">
<style type="text/css">
	.st0{fill:#FFFFFF;}
</style>
<path class="st0" d="M202.5,185.3c-1.6,2.9-3,6-4.9,8.7c-0.4,0.5-3.5,0.1-3.8-0.6c-2.8-5.6-5.9-4.2-9.4-0.7
	c-0.5,0.5-1.1,0.7-2.3,1.4c-1-2.9-1.8-5.5-2.8-8.2c-3,1.8-6,3.6-8.9,5.4c-4-6.5-4-6.5-13.2-3.1c-0.5-2.2-1.1-4.3-1.4-6.4
	c-0.3-2-0.3-4.1-0.4-6.7c-4.2,1.1-7.7,1.9-12.3,3.1c0.8-5.2,1.4-9.7,2.2-15.3c-4.4,1.5-7.8,2.7-11.8,4.1c0.9-5.2,1.7-9.5,2.6-14.4
	c-3.7,0.4-6.7,1.5-9.1,0.7c-1.5-0.4-2-3.7-3-5.7c0.3-0.6,0.5-1.3,0.8-1.9c-4,1.2-8,2.7-12.1,3.5c-4.3,0.9-8.7,1.1-14.3,1.8
	c1.5-3.4,2.7-6.3,4.3-9.8c-5.2-0.2-10.1-0.5-15.1-0.7c-0.1-0.6-0.2-1.3-0.3-1.9c1.7-0.3,3.5-1.1,5.1-0.9c7.2,1.1,13.8-0.1,20.1-4.5
	c-7.7,0-14.7-1.7-22.2-7.2c6.6,0,11.6-0.1,16.6,0c4.2,0.1,5.7-1.9,5-6.2c-3.7,0-7.4,0-11.2,0c-0.5-2-1-3.8-1.7-6.3
	c-5.7,1.9-11.1,3.8-17.4,5.9c2.4,2.6,4,4.4,6.3,6.8c-5.6,0-10.2,0-16.9,0c4.2-4.4,7.5-7.9,11.1-11.8c-3.5-1.7-6.4-3-9.2-4.3
	c0.1-0.4,0.3-0.8,0.4-1.2c4.7,0.8,9.4,1.8,14.2,2.3c5.1,0.5,10.2,0.7,15.2,0.6c2.4-0.1,4.9-0.9,4.4-4.5c-0.4-3.5-2.3-4.3-5.4-4.1
	c-4.6,0.2-9.1,0.1-14,0.1c0.7-1.4,1.4-2.8,2.8-5.8c-10,1.2-18.9,1.2-28.5,4.6c2.4,2.1,4.1,3.6,6.9,6.2c-5.2-1.3-9-2.3-14.7-3.8
	c3-2.1,4.6-3.3,6.4-4.4c1.2-0.8,2.6-1.4,3.9-2.1c-1.1-1.2-2-2.9-3.4-3.5c-6.2-2.8-12.6-5.4-18.9-8.1c-1.6-0.7-3.1-1.4-5.9-2.8
	c4.3-2.1,7.5-3.7,11.4-5.6c-7.5-3.6-14.5-6.9-21.5-10.2c0.1-0.8,0.2-1.7,0.3-2.5c5.6-1.2,11.2-2.4,16.9-3.6c-2.6,2-5.3,3.9-9.2,6.8
	c5.9,1.8,10.9,3.7,16.1,4.9c5.3,1.2,10.8,1.8,16.2,2.7c-6.1,4-14.5,0.8-19.7,6.9c8.2,11.1,59.1,17.5,67.2,7.8
	c-8.2-1.4-16-2.8-24.5-4.3c2.6-1.9,5.7-3,6.1-4.7c0.8-3.9,2.9-3.3,5.4-2.9c2.4,0.4,4.9,0.9,7.3,0.9c1.1,0,2.2-1.2,3.3-1.8
	c-0.7-1.1-1.3-2.7-2.3-3.1c-2.7-1.1-5.7-1.7-8.6-2.4c-5-1.2-10.1-2.3-14.8-3.4c3.6-2.2,6.9-4.2,10.4-6.2c5.2,0.7,11.2,1.4,18.2,2.4
	c-0.8-2.6-0.8-4.7-1.6-5c-4-1.7-8.3-2.9-12.8-4.5c0.8-1,1.7-2,2.7-3.2c-2.5-1-4.8-2.1-7.1-2.6c-19.1-4.8-38.4-7.6-58-4.4
	c-3.9,0.6-7.6,3-11.4,4.5c0.2,0.5,0.4,0.9,0.7,1.4c13.9,2.5,27.7,5,41.6,7.5c-0.1,0.5-0.1,1.1-0.2,1.6c-1.7,0.1-3.3,0.3-5,0.4
	c-6.6,0.2-13.3,0.3-19.9,0.5c-3.3-1.8-6.5-3.8-9.9-5.3c-5-2.2-10.1-3.9-15.1-6c-0.8-0.3-1.5-1.3-2.5-2.3c4.2-1.4,7.9-2.6,11.7-3.9
	c0-0.7-0.1-1.5-0.1-2.2c-7.9-0.9-15.9-1.8-23.8-2.7c-0.2-0.5-0.4-0.9-0.6-1.4c2-1.4,3.7-3.5,5.9-4.2c15.1-5.2,30.6-6.5,46.4-4.8
	c11.7,1.2,23.4,2.7,35,4.6c7.1,1.2,14,3.5,20.9,5.6C96,37,80.7,34.1,65.3,33.3c-15.6-0.8-31.3,0.5-47,0.8c-0.1,0.7-0.2,1.4-0.3,2.1
	c2.1,0.6,4.2,1.5,6.4,1.8c6.5,0.8,13,1.2,19.5,2c18,2.3,36,4.2,53.8,7.4c8.1,1.5,15.8,5.5,23.6,8.7c4.5,1.8,8.8,4.1,13.3,6
	c2.7,1.2,3.9,0.5,3-3c3.6,1,7.1,1.3,8,5.8c0.1,0.5,0.9,1.2,1.4,1.3c10.1,1.7,14.9,10.4,20.7,16.9c6.4,7.2,7.1,17.1,3.1,26.5
	c-0.4,0.9-0.7,1.9-1,3c4.6-0.8,6.8-4,6.6-10.2c-0.1-4.3-0.9-8.7-1.4-13.4c4.9,4.9,6.8,16.4,3.8,22.3c-3.6,7.2-10.2,8.3-18,8.6
	c1.4-3.2,2.6-5.9,4-9c-4.8-1.4-9.3-2.3-12,1.9c-1.9,3.1-0.4,6.5,2.8,8.7c5,3.4,10.4,3.5,15.6,1.2c3.7-1.7,7-4.4,11.5-5.9
	c-1,1.6-1.7,3.5-3,4.6c-2.6,2.3-2.3,4.3-0.4,6.8c5.3,7.3,12.5,11.9,21,14.3c2.1,0.6,5.2-0.4,7.1-1.8c5.7-4,11.9-3,14.9,3.4
	c1.5,3.1,2.6,6.6,2.9,10.1c0.5,6.5-3.5,9.8-11,8.5c1.8,2.6,3,4.5,4.2,6.3c1.6-1.1,3.2-2.3,4.8-3.4c3.1,7.5-8.6,23-16.6,23.8
	c0.7-5.5,7.1-9.6,3.8-16.4c-3.2,4.2-1.5,11.2-8.1,12.7c0-4,0-8.1,0-13c-7.3,7.7-8.1,7.7-10.8,0.4c-2.4,1-4.8,2-7.7,3.2
	c0,3.5,0,7.6,0,11.6c0.4,0.3,0.8,0.5,1.3,0.8c2.2-2.5,4.4-5,6.7-7.6c1.5,3,2.9,6,4.6,9.4C198.7,188.4,200.6,186.8,202.5,185.3z
	 M195.3,157.2c1.6,8.8,7.7,7,13.4,5.8c1.5-0.3,2.9-1.2,4.3-2.1c1.1-0.6,1.9-1.6,2.9-2.4c1.1-0.8,3-1.5,3.2-2.4
	c0.6-3.4,0.9-7,0.7-10.4c-0.1-2.4-5.5-4.7-6.6-2.9c-4.2,6.8-10.2,3.9-14.9,2.1c-9.1-3.6-17.8-8.5-26.8-13c0.4,0.9,0.5,2,1.2,2.6
	c3.2,2.9,6.7,5.5,9.6,8.7c1.6,1.7,2.4,4.3,3.5,6.5c-2,0.5-4,0.9-6,1.4c-0.5,0.1-0.9,0.1-1.3,0.2c-0.1,6.9,1.5,7.7,9.1,4.4
	c0.8,1.4,1.6,2.9,2.5,4.7C192,159.3,193.4,158.4,195.3,157.2z M134.8,91.7c-4.5,1-9,2-13.6,3.1c4.1,5.8,20.3,9.4,28.8,6.5
	c-3.3-3.1-6.5-6.2-9.7-9.2c0.2-0.4,0.4-0.8,0.7-1.2c3.2,0.6,6.4,1.1,9.2,1.7c-0.2-6.3-4.1-8.6-8.9-9.8c-4.8-1.2-9.3-4.3-16-1.1
	C128.7,85.3,131.7,88.4,134.8,91.7z M151.6,136.4c-2.4,0.3-5.9,1.6-6.7,0.6c-4.4-5.2-6.9-0.3-9.4,1.6c-3.3,2.5-6.3,5.8-5.9,10.7
	C139.3,149.3,150.6,144.1,151.6,136.4z M132.9,70.3c3.9,9.6,11.7,12.4,19.9,14.2c-0.5-2.8-0.6-5.6-1.6-8c-0.8-1.9-2.6-4.1-4.4-4.5
	C142.6,71,138,70.9,132.9,70.3z M154.5,156c-5.2,5.9-6.7,10.9-4.9,16.3c9.4-2,16.9-9.9,13.4-18c-1.7,2-3.3,4-5,6.1
	C156.7,158.7,155.7,157.5,154.5,156z M157.7,146.8c-4.4,0.5-8.2,0.9-13.3,1.5c-1.8,3.2-4.1,7.4-6.5,11.7c0.5,0.3,0.9,0.7,1.4,1
	C147,159.2,153.8,156.2,157.7,146.8z M118.9,105.1c0.1,0.8,0.3,1.5,0.4,2.3c8.4,4.5,17.3,5,27.6,3.2c-1.6-1.3-2.1-2.1-2.8-2.3
	c-5.3-1.8-10.5-3.9-16-4.9C125.3,102.9,122,104.5,118.9,105.1z M148.8,127.5c-0.2-0.5-0.4-0.9-0.6-1.4c-4.8-0.2-9.7-0.5-14.5-0.5
	c-4.2,0-9.6,5.8-9.5,10.6C132.6,133.2,140.7,130.3,148.8,127.5z M159.7,181.5c11.7-5.5,14.6-10.1,12.5-18.8
	c-1.7,1.5-3.8,4.7-5.2,4.5c-5.2-0.9-5.5,2.4-6,5.7C160.6,175.6,160.2,178.3,159.7,181.5z M144.7,117.3c-8.8-0.6-16.5-3.9-24.1,1.5
	C127.2,123.3,136.6,122.8,144.7,117.3z M173.6,184.5c7.2-5.7,11.1-14.5,8.9-19c-1.9,2.7-3.4,6.7-6.2,8.4
	C171.8,176.6,170.5,178.9,173.6,184.5z M106.9,144.8c0.3,0.8,0.6,1.5,0.9,2.3c2.8-0.7,5.7-1.3,8.3-2.4c0.4-0.2-0.3-3-0.6-5.5
	C111.9,141.5,109.4,143.1,106.9,144.8z M166.9,143c0.4-0.5,0.8-1,1.1-1.6c-1.5-1.1-3-2.3-4.6-3.4c-1,1.6-2,3.3-3.9,6.2
	C163.4,143.6,165.2,143.3,166.9,143z"/>
<path class="st0" d="M346.3,288c8.2,17,5.7,31.8-10.8,40.2c-1.7,0.9-3.1,4.1-3.1,6.3c0.1,21.2,0.6,42.4,1,63.6
	c0.1,7.4,0.2,14.8,0,22.3c-0.1,3.9,1,5.3,5,5.2c9.9-0.3,19.8-0.5,29.7,0.1c6.1,0.4,12,2.3,18,3.6c1.2,0.3,2.3,1.3,4.3,2.6
	c-4.3,1-7.7,1.7-11,2.5c0,0.4,0,0.9,0,1.3c2.4,0.2,4.9,0.2,7.3,0.5c2.1,0.3,4.2,0.8,6,1.7c1,0.5,1.7,2.2,1.7,3.4
	c0,0.8-1.3,1.9-2.3,2.4c-1.9,1-4,1.6-6.9,2.8c3.8,1.8,6.6,3.2,9.5,4.5c0,0.7,0,1.4,0,2.1c-4.9,1.2-9.8,3.5-14.8,3.5
	c-38.1,0.3-76.3,0.3-114.4,0c-6.2-0.1-12.4-2.2-18.6-3.5c0-0.9,0-1.8-0.1-2.7c5.3-1.5,10.7-3,17.5-4.9c-5.7-1.2-10.1-2.2-14.7-3.2
	c0-8.6,7.1-5.2,11.6-7.2c-2.1-1.2-3.9-2.2-7.4-4c3.9-1.7,6.6-3.6,9.3-3.9c12.6-1.2,25.3-2.4,38-2.8c5.4-0.2,6.8-1.8,6.8-7.1
	c-0.3-26.5-0.2-53,0-79.5c0-4.8-1.2-8.1-5.3-11.1c-9.3-6.8-13.3-17.1-16.2-27.8c-1.2-4.4-1.6-9-2-13.5s-2.1-7.2-7.1-8.3
	c-8.9-2-16.8-6.3-23.5-12.5c-1.6-1.5-2.8-3.5-3.4-6c3.4,2.4,6.7,5,10.2,7.2c8.3,5.3,17.5,8.2,27.3,8.9c12.1,0.9,24.2,1.4,36.2-2.5
	c10.6-3.4,17.1-9.4,17.6-20.9c0.1-2.4,0.6-4.8,1.2-8.5c1.6,1.7,2.5,2.4,2.9,3.3c8.3,17.7-3.5,28.5-17,32.4c-4.7,1.4-5.7,3-4.9,7.7
	c1.4,8.5,2.1,17.1,2.7,25.8c0.2,3.8,1.5,5.3,5.4,5.2c10.7-0.1,16.1-5.3,15.8-15.8C347.4,297.3,346.8,293,346.3,288z M320.3,281.2
	c-7.3,0-13.3-0.4-19.2,0.2c-2.1,0.2-5.4,2.6-5.7,4.4c-2.3,14.8,3.1,27.3,12.7,38.2c2.8,3.2,6.6,3,8.7-1.1c1.9-3.7,4-7.8,4.1-11.7
	C321.4,301.3,320.6,291.3,320.3,281.2z"/>
<path class="st0" d="M417.8,186.5c-2.5-3-5-6-8.1-9.8c1.4,4.7,2.6,9,4,13.8c-7.2-4-12.9-9-14.1-16.4c-1.2-7.1-1.6-14.9,0-21.9
	c1.8-7.9,7.8-9.1,14.6-4.6c1.6,1,4.6,1.6,6.1,0.8c6-3.5,11.8-7.4,17.3-11.6c1.1-0.9,1.6-4.7,0.7-5.8c-4-4.9-8.4-9.9-6.9-16.3
	c1.6-7,3.7-14.8,8-20.2c6.4-8,15-14.2,22.7-21.2c0.3-0.2,0.9,0,2.5,0c-4.5,3.9-8.4,7-12,10.4c-4.2,4-8.4,8.1-12.2,12.5
	c-6.8,7.8-6.7,17.4-5.3,26.6c1.3,8.3,18.1,13,24.1,7.1c1.5-1.5,3.2-4.9,2.5-6.1c-1-1.8-4-2.5-6.3-3.4c-0.9-0.3-2,0.1-4.2,0.4
	c1.1,2.7,2,5,2.9,7.2c-4.6,2.1-9.3,0.9-13.2-3.5c-4.2-4.7-4.2-14.1,0.1-22c1.6,7.1-3,15.3,5.2,21.3c-0.2-1.6-0.2-2.5-0.4-3.4
	c-3.8-11.6-1.9-21.5,8-29.3c4.3-3.4,7-8.6,13.2-10c2.7-0.6,4.7-4.3,7.1-6.6c0.4,0.3,0.8,0.5,1.2,0.8c-0.1,1-0.1,1.9-0.2,3.6
	c7.9-3.4,15.2-7.5,22.9-9.7c11.6-3.4,23.4-6.1,35.4-7.9c15.8-2.4,31.8-3.5,47.6-5.9c-24.5-4.2-48.9-3.9-73.3,0.6
	c16.3-10.1,75.7-9.3,86.3,1.9c-8.1,1-15.3,1.8-22.4,2.7c0,0.5,0,1,0,1.4c3.1,1.2,6.2,2.3,9.4,3.5c0,0.5,0.1,1,0.1,1.5
	c-14.5,5.4-27.8,15.7-45.3,8.6c6.2-1.2,12.2-2.4,18.2-3.5c5.9-1.1,11.8-2,17.8-3.1c0.1-0.6,0.2-1.1,0.3-1.7
	c-3.8-1.4-7.5-3.8-11.3-4.1c-17.4-1.5-34.5,0-51.2,5.2c-1.2,0.4-2.1,2.2-3.1,3.3c0.3,0.4,0.5,0.7,0.8,1.1c-2.8,0.8-5.8,1.4-8.4,2.6
	c-1.3,0.6-2.1,2.4-3.1,3.6c1.3,0.5,2.7,1.5,4,1.4c3.5-0.2,6.9-1,10.3-1.4c0.9-0.1,2.1,0.1,2.9,0.6c2.5,1.5,4.8,3.2,7.4,5
	c-5.4,1.3-11.1,2.6-16.8,4c-1.4,0.3-2.8,0.6-4,1.3c-0.8,0.4-1.7,2-1.5,2.3c0.5,0.8,1.7,1.5,2.7,1.8c1,0.2,2.1,0,3.1-0.3
	c3.9-0.9,8-2.9,9.4,3.4c0.2,0.8,1.8,1.3,3.7,2.6c-7.4,1.3-13.7,2.5-20.1,3.6c4.7,8.4,46.6,3.6,58.4-6.5c-4.8-5.1-11.9-3.1-18.9-6.2
	c5.9-1.1,10.4-1.9,14.9-2.9c4.4-1,8.7-2.3,13-3.4c0.2-0.7,0.5-1.3,0.7-2c-1.6-0.7-3.2-1.4-4.9-2c0.3-0.6,0.7-1.1,1-1.7
	c3.8,0.7,7.5,1.3,11.3,2c0.2,0.7,0.4,1.4,0.6,2.1c-6,2.9-12,5.8-18.8,9.1c3.1,1.8,5.7,3.2,9.8,5.5c-5.4,2.1-9.6,3.5-13.6,5.2
	c-3.9,1.7-7.6,3.8-12,6c3.6,2.4,6.1,4,9.9,6.5c-4.7,1.3-7.8,2.1-12.1,3.3c1.9-2.3,3-3.5,5.1-5.9c-8.5-1.2-16-2.3-23.5-3.4
	c-0.2,0.5-0.4,1-0.6,1.5c0.9,1.2,1.9,2.5,3.2,4.3c-5.2,0-9.9-0.3-14.6,0.1c-1.6,0.1-3.1,1.9-4.6,2.9c1.4,1.3,2.8,3.6,4.1,3.6
	c7.2-0.2,14.3-1,21.4-1.6c1.5-0.1,2.9-0.5,4.7,0.4c-2.4,1.4-4.9,2.7-9.3,5.2c4.3,2.9,7.6,5.1,10.9,7.4c-0.3,0.5-0.7,1-1,1.5
	c-4.1,0-8.1,0-12.8,0c1.4-1.9,2.6-3.5,4.4-5.9c-5.1-1.8-9.6-3.4-14.7-5.2c-0.7,7.8-7.1,4.5-10.8,6.3c0.3,5,0.5,5,6.8,5
	c3.3,0,6.5,0,10.6,0c-5.6,5.5-12,5.5-19.4,5.7c7.2,6.2,15.3,4.3,22.8,4.4c-0.1,0.7-0.2,1.4-0.3,2.1c-4.3,0-8.5,0-13.7,0
	c1.7,3.5,3,6,4.3,8.5c-0.3,0.5-0.5,1-0.8,1.5c-7.3-1.4-14.5-2.8-21.7-4.2c-0.1,7.4-0.1,7.4-10.3,5.5c0.6,4.1,1.2,7.9,1.9,12.3
	c-3.7-1-6.7-1.9-10.4-2.9c0.7,4.5,1.3,8,2,12.5c-3.9-0.6-6.9-1.1-10.7-1.7c-0.2,2.2-0.4,4-0.5,5.8c-0.2,5.4-1,5.9-6,3.3
	c-0.9-0.5-1.9-0.8-2.9-1.3c-1.2,2.2-2.3,4.1-3.5,6.4c-2.6-1.6-4.9-3-7.6-4.7c-1.1,2.6-2,4.7-3.2,7.3c-1.4-1.3-2.4-2.7-3.8-3.2
	c-1.3-0.5-3.4-0.5-4.3,0.2c-4.6,4-7.2,3.4-9.3-2.7c-0.3-0.8-0.2-1.7-0.3-2.6c1.8,1.5,3.6,3.1,5.7,4.8c1.2-3.2,2.2-5.7,3.3-8.4
	c2.3,2.1,4.4,4,7.5,6.9c0-4.8,0-8,0-11.1c-2.4-0.8-4.7-1.5-6.9-2.2c-1.1,1.6-2,3-3.2,4.7c-2.1-1.5-3.8-2.7-6.2-4.4
	C417.8,180.3,417.8,183.4,417.8,186.5z M443.8,175.5c3.5,2.4,6.9,4.8,11.3,7.8c-0.6-4.4-0.8-7.5-1.4-10.5c-0.1-0.8-1.2-1.6-2-1.9
	c-2.6-1.3-5.4-2.4-8.1-3.6c0.1,2.3,0.3,5.3,0.4,8.5c-6.7,3.5-5.5-4.9-9.1-6.3c-0.3,7,4.1,14.5,10.2,16
	C444.6,181.8,444.2,178.6,443.8,175.5z M443.4,142.5c-0.4-0.5-0.9-1-1.3-1.5c-6.4,3.2-12.6,7-19.3,9.5c-4.7,1.7-10.3,4.4-14.8-1.4
	c-0.4-0.6-2.8-0.2-3.8,0.4c-3.2,1.9-3.6,10.8-0.2,12.2c2.5,1,5,1.2,5,4.6c4.4-0.2,8.9-0.2,13.2-0.8c2-0.3,3.7-2.1,5.5-3.3
	c0.3,0.4,0.6,0.8,0.9,1.2c0.7-1.1,1.5-2.2,2.2-3.2c6.2,3.1,7.4,2.6,7.2-2c-2.4-1.5-4.2-2.8-6.1-4c1.6-1.8,3.2-3.7,4.9-5.4
	C439,146.6,441.2,144.6,443.4,142.5z M462.3,105.5c4-1,6.7-1.7,9.3-2.3c0.7,0.8,1.3,1.6,2,2.4c-3.3,1.8-6.6,3.7-10,5.5
	c0.5,0.6,1,1.3,1.5,1.9c8.2-0.2,16.6,0.5,25.2-6c-5.3-1.2-9.1-2-12.8-2.9c2.8-3.1,5.2-5.8,8.2-9.1c-8.1-2.4-13.7,1.2-19.4,3.3
	C464.5,99.1,463.9,102.5,462.3,105.5z M463.1,144.3c2.5,6.9,12.3,12.1,19.9,9c-3.7-4.3-7.1-8.1-10.5-12c-0.2,0.5-0.5,1-0.7,1.5
	C469.1,143.2,466.3,143.7,463.1,144.3z M461.5,97.1c7.5-0.6,13.9-3.5,16.2-10.8C467.7,84.3,464.2,86.6,461.5,97.1z M452.3,159.3
	c-1.8,8.4,4.9,14.7,13.9,15.6c-1.8-5-3.4-9.5-5-14.1c-0.6-0.1-1.2-0.2-1.7-0.2c-0.7,1.4-1.3,2.8-2.2,4.4
	C455.3,162.7,454.1,161.3,452.3,159.3z M473.8,165.2c-1.6-9.6-5.5-12.7-15.1-12.3C458.8,158.6,463.4,162.5,473.8,165.2z M491,117.1
	c-8.6-6.9-15.3,3.2-23.3,2.4C475.8,123.5,483.4,120.9,491,117.1z M487.5,142.8c-1.8-5.7-5.3-7.8-9.2-8.4c-4.2-0.6-8.6-0.1-13.6-0.1
	C471.3,139.1,478.8,140.9,487.5,142.8z M470.2,127.5c6.3,2.3,12.7,5.2,20.1,0.3C483.2,124.1,476.7,125.2,470.2,127.5z M495.2,146.7
	c-0.5,0.3-1,0.6-1.5,0.9c0.5,1.4,0.7,3.9,1.6,4.1c2,0.6,4.3,0.2,6.4,0.2c0-0.5,0-1.1,0-1.6C499.6,149.2,497.4,147.9,495.2,146.7z"/>
<path class="st0" d="M237.7,107.2c13-16.2,30.6-25.6,49.3-32.3c18.4-6.6,37.5-11.2,56.9-16.8c-4.9-6.1-10.1-11.6-19.5-9.6
	c2.6-5.2,11.8-7.9,17.7-4.4c5.8,3.5,11.1,8.1,15.8,13c4.3,4.6,2.3,8.3-4,9.3c-13.7,2-27.6,3.3-41.2,6.4c-26.6,5.9-50.9,17.5-73,33.4
	C238.9,106.5,238.3,106.8,237.7,107.2z"/>
<path class="st0" d="M299.3,239c-3.4-0.7-6.2-0.7-7-5.2c-0.8-4.8,2.2-6.3,5.4-6.6c19.9-2.1,39.9-3.9,59.8-5.6c1.1-0.1,3.3,2,3.5,3.2
	c0.1,1.2-1.4,3.7-2.6,3.9c-7,1.6-14.1,2.8-21.2,4C324.6,234.9,312,236.9,299.3,239z"/>
<path class="st0" d="M332.8,108.4c-13.8-2.6-25.5,4.5-37.8,8.7c-4,1.4-7.8,3.2-11.8,4.3c-1.6,0.4-5.1-0.8-5.1-1.2
	c0.1-2.9,0.1-7.5,1.6-8.2c11.4-5.1,23-9.5,34.7-13.7c2.8-1,6.3-0.8,9.4-0.6c5.4,0.4,10.9,0.8,16.2,2c2.5,0.6,5.1,2.7,6.7,4.9
	c1.5,2.1,0.4,4-2.7,3.9C340.3,108.4,336.6,108.4,332.8,108.4z"/>
<path class="st0" d="M357,202.8c2.1,6.8,1.9,7.2-4.2,8.3c-17,2.9-33.9,5.8-50.9,8.7c-1.7,0.3-3.4,1.2-5.1,1.4
	c-2.6,0.2-6,1.3-6.4-3.2c-0.3-3.4-0.8-6,4.1-7.3c19.7-5.3,39.8-7,59.9-8.1C355.3,202.5,356.2,202.7,357,202.8z"/>
<path class="st0" d="M285.5,156.1c-0.9-0.9-2.6-1.7-2.8-2.7c-0.4-2.5-2.3-5.8,1.7-7.3c4.8-1.8,9.7-3.2,14.4-5.2
	c15.7-6.9,32.1-7.2,48.7-5c1.2,0.2,3.2,2.1,3.1,3c-0.2,1.7-1.3,3.7-2.7,4.7c-1.3,0.9-3.4,0.8-5.2,0.7c-15.4-0.4-30,3.7-44.4,8.4
	C294.4,153.9,290.2,154.8,285.5,156.1z"/>
<path class="st0" d="M348,125.4c-6.2,0.3-12.7-0.4-18.8,1c-12.1,2.8-23.9,6.8-35.9,10.3c-2.5,0.7-5,1.8-7.6,2.3s-5.7,1.2-6.1-2.7
	c-0.3-3.1-1.5-6.2,3.6-7.7c10.3-2.9,20.5-6.5,30.4-10.5c8.4-3.4,16.6-1.5,25-0.5c1.6,0.2,3.1,0.7,4.7,0.8
	C348.9,118.9,349,119.1,348,125.4z"/>
<path class="st0" d="M333.6,151.3c5.1,0.6,10.4,1,15.6,2.1c1.4,0.3,2.5,2.7,3.2,4.4c0.1,0.4-2.2,2.4-3.4,2.5
	c-19.6,0.6-38.2,5.9-56.8,11.4c-6.8,2-8.7,0.4-7.6-6.4c0.2-1.1,1.3-2.7,2.3-3C301.9,156.8,317.2,152.3,333.6,151.3z"/>
<path class="st0" d="M286.6,178.4c20.6-6,41.3-12.3,63.4-9.4c1.6,0.2,3.7,1.7,4.2,3.1c1,2.6-0.6,4-3.6,4.3
	c-6.6,0.7-13.3,1.4-19.8,2.6c-12.1,2.4-24.2,4.6-36,7.9C286.8,189.1,285.6,188.7,286.6,178.4z"/>
<path class="st0" d="M342.1,186.5c3.2,0,6.4,0,9.5,0c2.4,0,4.6,0,4.5,3.5c0,3.3-1.2,4.8-4.5,5.1c-8,0.9-16,2-24,3.3
	c-11.1,1.8-22.2,3.8-33.2,5.8c-2.9,0.5-5.3,0.9-5.9-3c-0.6-3.4-0.8-5.8,3.8-6.9C308.7,190.6,325.1,186.3,342.1,186.5z"/>
<path class="st0" d="M394.9,256.5c0.5-3.5,1-7,1.5-10.4c-4.9,5.8-5.3,14.3-14,17.9c0.6-1.4,1.1-2.2,1.2-3c1.1-5.4,2.8-10.8,2.9-16.2
	c0.1-6,1.3-7.9,6.8-7.3c0.9,0.1,2-0.7,3-1.3c3.2-2,6.4-1,6.6,2.6C403.2,245.8,401.3,252.2,394.9,256.5z"/>
<path class="st0" d="M342.7,274.6c2.2-2.4,5-4.5,6.4-7.3c2.2-4.6,3.7-9.6,5.1-14.6c0.7-2.5,0-5.3,0.7-7.8c0.4-1.4,2.1-3.1,3.4-3.3
	c1-0.1,2.9,1.8,3.3,3.2c2.9,9.4-1.5,16.8-7.4,23.3c-2.9,3.2-6.7,5.4-10.1,8.1C343.6,275.6,343.2,275.1,342.7,274.6z"/>
<path class="st0" d="M344.7,42.3c-6-1.8-12.7-2.6-17.8-5.9c-5-3.1-8.4-8.7-11.8-13.8c6.4,4.8,12.7,9.6,19.1,14.4
	c0.4-0.4,0.8-0.8,1.1-1.2c-7.3-9-19-14.9-20.1-28.3c6.3,14.5,19.3,23.1,30.4,33.3C345.3,41.3,345,41.8,344.7,42.3z"/>
<path class="st0" d="M356.5,271c8.1-6.1,9.8-14.6,10.3-23.9c0.1-2.5,2.7-7,3.9-6.9c4,0.3,4.8,4,4.3,7.6c-1.6,9.8-6.2,17.8-14.7,23.3
	c-0.8,0.5-1.9,0.6-2.8,0.8C357.2,271.7,356.9,271.3,356.5,271z"/>
<path class="st0" d="M183.6,114c-0.2-2.3-0.9-4.8-0.6-7c2-13.9-4.2-24.3-13.9-33c-8.3-7.5-17.1-14.4-25.2-21.1
	c5.8-0.1,27.2,17.1,34.7,28.6c6.5,10,11.2,20.3,6.5,32.4C184.6,114,184.1,114,183.6,114z"/>
<path class="st0" d="M238.7,149.5c6.6-3.3,13.3-6.7,19.9-9.9c2-1,4.1-2.2,6.3-2.7c1.7-0.4,4.8-0.3,5.1,0.4c1,2.5,1.6,5.8-2.3,6.9
	c-9.4,2.5-18.8,4.8-28.3,7.2C239.2,150.8,239,150.2,238.7,149.5z"/>
<path class="st0" d="M369.3,268.6c6.6-8.3,8-16.7,8-25.6c0-1.8,2-3.6,3-5.4c1.3,1.5,3.3,2.9,3.8,4.6
	C386.4,251.5,379.3,265,369.3,268.6z"/>
<path class="st0" d="M241.9,179.4c10.3-4,20.6-8,30.9-12c2.4,6.6,2,7.5-3.9,8.8c-7.5,1.6-15,3.3-22.5,4.8c-1.3,0.3-2.7,0-4.1,0
	C242.1,180.5,242,180,241.9,179.4z"/>
<path class="st0" d="M240.3,164.1c9.3-4,18.5-8.1,27.8-11.9c1-0.4,4,1,3.9,1.4c-0.3,2-0.7,5.4-1.8,5.7c-9.7,2.6-19.6,4.6-29.4,6.7
	C240.6,165.4,240.5,164.8,240.3,164.1z"/>
<path class="st0" d="M244.5,193.6c3.5-1.3,7-2.7,10.5-4.1c5.2-2.1,10.3-4.4,15.7-6.2c1.4-0.5,4.6,0.4,4.9,1.3
	c0.7,2.3,1.3,5.6-2.6,6.2c-9.3,1.5-18.6,2.8-28,4.2C244.8,194.6,244.6,194.1,244.5,193.6z"/>
<path class="st0" d="M247.7,207.8c9.5-3.1,19.1-6.3,28.6-9.4c2.7,7.4,1.8,8.6-5.1,9.1c-6.8,0.5-13.6,1.3-20.4,1.9
	c-1,0.1-1.9-0.2-2.9-0.3C247.9,208.6,247.8,208.2,247.7,207.8z"/>
<path class="st0" d="M248.1,223.1c5.1-1.6,10.2-3.3,15.3-4.7c4.4-1.2,8.8-2.4,13.3-2.9c1.1-0.1,2.9,2.3,3.5,3.8
	c0.3,0.8-1.4,3.4-2.3,3.5c-9.8,0.7-19.6,1.1-29.5,1.5C248.3,223.9,248.2,223.5,248.1,223.1z"/>
<path class="st0" d="M282.5,238.8c-10.3,0-20.3,0-30.2,0c-0.1-0.5-0.2-0.9-0.2-1.4c8.7-1.9,17.4-4.2,26.2-5.7
	C283.6,230.8,282,235.2,282.5,238.8z"/>
<path class="st0" d="M266.7,118.3c2.8,6.8,2.6,7.3-3.1,9.2c-7.9,2.7-15.8,5.5-23.6,8.2c-0.3-0.5-0.5-1.1-0.8-1.6
	C248.2,128.9,257.2,123.7,266.7,118.3z"/>
<path class="st0" d="M366.4,80.2c2.2,3,4.7,5,4.5,6.5c-0.3,1.8-3,3.2-4.6,4.8c-1.5-1.6-4.1-3.1-4.3-4.9
	C361.8,85,364.2,83.1,366.4,80.2z"/>
<path class="st0" d="M352.6,76.5c2.3,3,4.8,5,4.5,6.4c-0.4,1.8-3,4.1-4.7,4.2c-1.4,0.1-4.1-2.6-4.3-4.3
	C347.9,81.2,350.3,79.4,352.6,76.5z"/>
<path class="st0" d="M369,203.1c6.1,0.5,11.4,0.8,16.7,1.2c0,0.3,0,0.6,0,1c-4.5,0.9-9,1.9-13.5,2.7
	C367.6,208.7,367.8,206.3,369,203.1z"/>
<path class="st0" d="M386.1,91.4c-3.2,1.9-5.2,4.1-6.7,3.7c-1.6-0.4-3.9-3.2-3.7-4.8c0.2-1.6,2.9-4.1,4.6-4.1
	C381.7,86.3,383.3,88.9,386.1,91.4z"/>
<path class="st0" d="M375.5,125.6c-4.8,0-9.5,0.1-14.3-0.1c-0.6,0-1.2-1.4-1.8-2.1c0.8-0.6,1.8-1.8,2.5-1.7
	c4.6,0.5,9.1,1.3,13.7,2.1C375.6,124.4,375.6,125,375.5,125.6z"/>
<path class="st0" d="M380.5,173.1c-4.6,0.6-9.2,1.2-13.8,1.6c-0.5,0-1.5-1.7-1.6-2.7c-0.1-0.5,1.3-1.7,2-1.6
	c4.4,0.1,8.9,0.5,13.3,0.8C380.4,171.8,380.5,172.5,380.5,173.1z"/>
<path class="st0" d="M372,108.6c-4.2,0-8.5,0.1-12.7-0.1c-0.7,0-1.8-1.2-1.9-2c-0.1-0.6,1.2-2,1.7-2c4.4,0.5,8.8,1.3,13.2,2
	C372.2,107.2,372.1,107.9,372,108.6z"/>
<path class="st0" d="M376.6,141.2c-4,0.4-8,1.1-12,1.2c-1,0-2.1-1.6-3.2-2.5c1.1-0.7,2.3-2,3.4-2c4,0.3,7.9,1.1,11.8,1.7
	C376.7,140.2,376.6,140.7,376.6,141.2z"/>
<path class="st0" d="M379.3,158.4c-4.5,0.4-8.9,1-13.4,1c-1.1,0-2.1-1.8-3.2-2.7c0.3-0.6,0.7-1.2,1-1.8c5.2,0.8,10.5,1.5,15.7,2.3
	C379.3,157.6,379.3,158,379.3,158.4z"/>
<path class="st0" d="M386.4,222.7c-5.1,1.1-10.3,2.2-15.4,3.3C369.9,220.7,373.4,219.9,386.4,222.7z"/>
<path class="st0" d="M381.6,190.5c-4.3,0.4-8.6,0.9-13,1.2c-0.5,0-1.2-1-1.8-1.6c0.7-0.6,1.4-1.7,2.1-1.8c4.1-0.2,8.3-0.1,12.4-0.1
	C381.4,189.1,381.5,189.8,381.6,190.5z"/>
</svg>
