<?xml version="1.0" encoding="utf-8"?>
<!-- Generator: Adobe Illustrator 23.0.3, SVG Export Plug-In . SVG Version: 6.00 Build 0)  -->
<svg version="1.1" id="Layer_1" xmlns="http://www.w3.org/2000/svg" xmlns:xlink="http://www.w3.org/1999/xlink" x="0px" y="0px"
	 viewBox="0 0 432 600" style="enable-background:new 0 0 432 600;" xml:space="preserve">
<style type="text/css">
	.st0{fill:#FFFFFF;}
</style>
<g>
	<path class="st0" d="M424.3,197.3c0,3.5,0,6.1,0,8.7c0,85.5,0.1,171.1-0.1,256.6c-0.1,40.6-16.9,73.7-47.4,99.8
		c-20.6,17.6-44.5,28.1-71.8,30.4c-6.1,0.5-12.2,1.1-18.3,1.1c-82,0.1-164,0-246.1,0c-2.4,0-4.8,0-8,0c0-3,0-5.6,0-8.1
		c0-84.9,0.5-169.8-0.2-254.6c-0.5-58.1,39.7-116.7,106-131c9.8-2.1,20-3,30-3.1c83.1-0.2,166.2-0.1,249.4-0.1
		C419.8,197.1,421.7,197.2,424.3,197.3z M261.6,560.6c-0.2-4.3,0.6-8.6-0.8-11.9c-3.2-7.3-7.2-14.4-11.5-21.1
		c-3.3-5.1-5.6-10.3-3-16c2.6-5.7,8.3-5.6,13.7-5.6c13.4,0,26.8,0.1,40.1,0c8.1,0,10.2-2.2,10.2-10c0.1-10.5-4.2-19.2-11.4-26.4
		c-11.4-11.5-26.1-16.3-41.4-19.9c-13.2-3.1-18.9-11.1-16.7-24.3c2.6-16-4.6-24.7-20.9-25c-6.8-0.1-13.6,0.2-20.4-0.3
		c-8.3-0.6-11.6-5.8-9.1-13.5c2.3-7.1,5-14,7-21.2c5.4-18.4,12.1-36.7,15.5-55.5c3.5-19.2-3.5-36-20.7-47c-25.4-16.3-70.2-9-82,31.8
		c-5.5,19.1-9.5,38.6-14.9,57.7c-4.6,16.2-10.4,32-15.5,48c-2.4,7.6,1.4,13,9.4,13.3c5.7,0.2,11.4,0.5,17.1,0
		c16.1-1.6,27.7,11.5,22.5,26.6c-2.5,7.1,0.1,13.7,7,17.3c3.7,1.9,8.2,3.3,12.4,3.4c14,0.4,28.1,0.1,42.1,0.2
		c7.2,0.1,10.7,3.1,10.5,9.7c-0.4,13.3-4.8,24.9-15.3,33.6c-12.8,10.5-28.1,13.7-44,14.8c-6,0.4-11,1.9-12.6,8.3
		c-1.5,6.1,1.6,11.9,8.4,14.4c8.7,3.3,15.6,7.5,13.7,18.5C188.2,560.6,224.5,560.6,261.6,560.6z M248.1,310.9c0,2.6-0.2,3.7,0,4.7
		c2.3,10.4,14.7,18.9,27.8,19.1c14,0.2,27.2-7.9,29.8-18.3c1.3-5.3-1.5-5.6-5.5-4.5c-12.8,3.5-25.7,5.1-38.9,2.1
		C257.2,313,253.1,312,248.1,310.9z"/>
	<path class="st0" d="M8,275.1c4.5-6.2,8.6-12.7,13.5-18.5c22-25.8,47.9-47.1,75-67.3c36.6-27.4,77.7-46,118.8-64.9
		c8.1-3.7,16.4-7.3,24.5-11.1c2.7-1.3,5.1-3.1,8.3-5.1c-8.7-7.6-17.9-12-27.7-15.8c-9.8-3.8-19.6-4.9-29.6,0.8
		c-0.2-0.8-0.4-1.7-0.6-2.5c1.7-1.3,3.4-2.6,5.1-4c15-12.4,31.8-13.5,48.7-6c12.5,5.5,23.9,13.3,35.8,20.2c5.2,3,5,7.4,0.9,10.6
		c-4.6,3.6-9.8,6.7-15.2,8.8c-30.8,12-62.2,22.8-92.6,35.8c-16.8,7.2-32.2,17.5-47.8,27.3c-28.6,18-55.7,37.9-80.8,60.5
		c-10.3,9.2-19.9,19.1-29.8,28.7c-1.5,1.4-2.9,2.8-4.4,4.1C9.3,276.2,8.7,275.7,8,275.1z"/>
	<path class="st0" d="M143.3,4.3c7.8,16.8,22.1,26.9,37.6,35.1c17.7,9.4,36,17.7,53.9,26.5c-2.5,4.1-19.4,3.5-41.7-1.8
		c-26.6-6.3-40.5-14.5-41.4-24.4c14.8,16.8,49.5,23.4,79.9,26.5c-7.2-2.6-14.4-5-21.5-7.9c-21-8.4-41.3-18.1-57.9-33.9
		C144.9,17.6,141.9,10.6,143.3,4.3z"/>
	<path class="st0" d="M278.3,168.4c-6.3,0-11.5-4.2-11.5-9.2c0-6.9,5.3-12.3,11.9-12c5.5,0.2,10.1,4.3,10.1,9.1
		C288.9,162.6,283.7,168.5,278.3,168.4z"/>
	<path class="st0" d="M313.8,168.8c-5.3,0.1-10.2-4.1-10.3-8.8c-0.2-6.8,4.3-11.8,10.9-12c6.1-0.2,11,3.9,11.2,9.4
		C325.8,163.2,320.2,168.6,313.8,168.8z"/>
	<path class="st0" d="M349.4,148.7c6.5,0.1,11.7,4.5,11.7,9.9c0,5.1-5.3,11.4-9.8,11.4c-7,0-12.1-4.5-11.9-10.3
		C339.6,153.8,344.4,148.6,349.4,148.7z"/>
	<path class="st0" d="M205.7,70c-16.5,0.8-33.1,1.5-47.4-8.9C173.2,68.4,189.6,68.5,205.7,70z"/>
	<path d="M261.6,560.6c-37.1,0-73.4,0-110.7,0c1.9-11-5-15.2-13.7-18.5c-6.8-2.5-9.9-8.4-8.4-14.4c1.6-6.4,6.6-7.9,12.6-8.3
		c15.9-1.1,31.2-4.3,44-14.8c10.6-8.7,14.9-20.3,15.3-33.6c0.2-6.6-3.2-9.6-10.5-9.7c-14-0.1-28.1,0.2-42.1-0.2
		c-4.2-0.1-8.6-1.5-12.4-3.4c-6.9-3.6-9.5-10.3-7-17.3c5.2-15.1-6.4-28.1-22.5-26.6c-5.6,0.5-11.4,0.3-17.1,0
		c-8-0.3-11.8-5.7-9.4-13.3c5.1-16,10.9-31.9,15.5-48c5.4-19.1,9.4-38.6,14.9-57.7c11.8-40.8,56.6-48.1,82-31.8
		c17.2,11,24.2,27.7,20.7,47c-3.4,18.8-10,37-15.5,55.5c-2.1,7.1-4.8,14.1-7,21.2c-2.5,7.8,0.8,13,9.1,13.5
		c6.8,0.5,13.6,0.1,20.4,0.3c16.3,0.3,23.5,9,20.9,25c-2.1,13.2,3.5,21.2,16.7,24.3c15.2,3.6,30,8.4,41.4,19.9
		c7.2,7.3,11.4,15.9,11.4,26.4c0,7.8-2.1,10-10.2,10c-13.4,0.1-26.8,0-40.1,0c-5.4,0-11.1-0.1-13.7,5.6c-2.6,5.7-0.2,10.9,3,16
		c4.3,6.8,8.3,13.8,11.5,21.1C262.3,552.1,261.4,556.4,261.6,560.6z M133.2,331.2c3.3-0.4,5.7-0.3,7.9-0.9c15.4-4.1,30.7-4.4,46.1,0
		c1.9,0.6,4.2,0,6.3,0c-0.2-2.3,0.2-4.8-0.8-6.7c-6-11.8-16.2-16.9-29-16.9c-12.7,0-23,5.1-29,16.9
		C133.8,325.6,133.9,328,133.2,331.2z"/>
	<path d="M248.1,310.9c5,1.1,9.1,2.1,13.3,3.1c13.1,3,26,1.4,38.9-2.1c3.9-1.1,6.8-0.7,5.5,4.5c-2.6,10.5-15.7,18.5-29.8,18.3
		c-13.1-0.2-25.5-8.7-27.8-19.1C247.9,314.6,248.1,313.5,248.1,310.9z"/>
	<path class="st0" d="M133.2,331.2c0.6-3.2,0.6-5.6,1.6-7.6c6-11.8,16.2-16.9,29-16.9c12.8,0,23,5.1,29,16.9c1,1.9,0.6,4.4,0.8,6.7
		c-2.1,0-4.3,0.5-6.3,0c-15.4-4.4-30.7-4.1-46.1,0C139,330.9,136.6,330.9,133.2,331.2z"/>
</g>
</svg>
